<svg preserveAspectRatio="none" overflow="visible" style="display: block;" width="398" height="102" viewBox="0 0 398 102" fill="none" xmlns="http://www.w3.org/2000/svg">
<g id="FLOATING BAR &#226;&#128;&#148; PHYSICAL CENTER DIP" filter="url(#filter0_d_0_29)">
<g clip-path="url(#clip0_0_29)">
<path id="Vector" d="M48 12H142C154 12 158 16 162 26C167 40 178 47 199 47C220 47 231 40 236 26C240 16 244 12 256 12H350C365.464 12 378 24.536 378 40V46C378 61.464 365.464 74 350 74H48C32.536 74 20 61.464 20 46V40C20 24.536 32.536 12 48 12Z" fill="#08111D" fill-opacity="0.96" stroke="#1E2B3F"/>
<path id="Vector_2" d="M48 13H141C152 13 156 16.5 160 26.5" stroke="#24405A" stroke-opacity="0.45" stroke-linecap="round"/>
<path id="Vector_3" d="M258 13H350" stroke="#24405A" stroke-opacity="0.45" stroke-linecap="round"/>
</g>
</g>
<defs>
<filter id="filter0_d_0_29" x="0" y="0" width="398" height="102" filterUnits="userSpaceOnUse" color-interpolation-filters="sRGB">
<feFlood flood-opacity="0" result="BackgroundImageFix"/>
<feColorMatrix in="SourceAlpha" type="matrix" values="0 0 0 0 0 0 0 0 0 0 0 0 0 0 0 0 0 0 127 0" result="hardAlpha"/>
<feOffset dy="8"/>
<feGaussianBlur stdDeviation="10"/>
<feColorMatrix type="matrix" values="0 0 0 0 0 0 0 0 0 0 0 0 0 0 0 0 0 0 0.3 0"/>
<feBlend mode="normal" in2="BackgroundImageFix" result="effect1_dropShadow_0_29"/>
<feBlend mode="normal" in="SourceGraphic" in2="effect1_dropShadow_0_29" result="shape"/>
</filter>
<clipPath id="clip0_0_29">
<rect width="358" height="62" fill="white" transform="translate(20 12)"/>
</clipPath>
</defs>
</svg>
