<svg preserveAspectRatio="none" overflow="visible" style="display: block;" width="354" height="246" viewBox="0 0 354 246" fill="none" xmlns="http://www.w3.org/2000/svg">
<g id="Opal neural branches + relationship connectors">
<path id="Vector" d="M94 123C74 119 58 123 37 128C25 131 18 132 8 132" stroke="url(#paint0_linear_0_144)" stroke-width="1.4" stroke-linecap="round"/>
<path id="Vector_2" d="M100 165C81 172 69 184 50 190C34 195 22 190 7 190" stroke="url(#paint1_linear_0_144)" stroke-width="1.4" stroke-linecap="round"/>
<path id="Vector_3" d="M254 82C277 75 293 70 317 70C331 70 338 70 346 70" stroke="url(#paint2_linear_0_144)" stroke-width="1.4" stroke-linecap="round"/>
<path id="Vector_4" d="M260 123C279 119 296 123 318 128C330 131 337 132 347 132" stroke="url(#paint3_linear_0_144)" stroke-width="1.4" stroke-linecap="round"/>
<path id="Vector_5" d="M254 165C274 172 286 184 305 190C320 195 333 190 347 190" stroke="url(#paint4_linear_0_144)" stroke-width="1.4" stroke-linecap="round"/>
<path id="Vector_6" opacity="0.86" d="M177 119C157 96 134 76 111 67" stroke="url(#paint5_linear_0_144)" stroke-width="1.2" stroke-linecap="round"/>
<path id="Vector_7" opacity="0.72" d="M177 119C153 111 129 104 104 103" stroke="url(#paint6_linear_0_144)" stroke-width="1.1" stroke-linecap="round"/>
<path id="Vector_8" opacity="0.78" d="M177 119C154 132 131 143 109 157" stroke="url(#paint7_linear_0_144)" stroke-width="1.2" stroke-linecap="round"/>
<path id="Vector_9" opacity="0.72" d="M177 119C163 145 150 165 139 185" stroke="url(#paint8_linear_0_144)" stroke-width="1.1" stroke-linecap="round"/>
<path id="Vector_10" opacity="0.86" d="M177 119C197 96 220 76 243 67" stroke="url(#paint9_linear_0_144)" stroke-width="1.2" stroke-linecap="round"/>
<path id="Vector_11" opacity="0.72" d="M177 119C201 111 225 104 250 103" stroke="url(#paint10_linear_0_144)" stroke-width="1.1" stroke-linecap="round"/>
<path id="Vector_12" opacity="0.78" d="M177 119C200 132 223 143 245 157" stroke="url(#paint11_linear_0_144)" stroke-width="1.2" stroke-linecap="round"/>
<path id="Vector_13" opacity="0.72" d="M177 119C191 145 204 165 215 185" stroke="url(#paint12_linear_0_144)" stroke-width="1.1" stroke-linecap="round"/>
<path id="Vector_14" opacity="0.62" d="M111 67C128 58 146 55 160 61C171 66 174 88 177 119" stroke="url(#paint13_linear_0_144)" stroke-width="0.85"/>
<path id="Vector_15" opacity="0.62" d="M243 67C226 58 208 55 194 61C183 66 180 88 177 119" stroke="url(#paint14_linear_0_144)" stroke-width="0.85"/>
<path id="Vector_16" opacity="0.52" d="M104 103C121 91 140 86 154 91C165 95 171 105 177 119" stroke="url(#paint15_linear_0_144)" stroke-width="0.8"/>
<path id="Vector_17" opacity="0.52" d="M250 103C233 91 214 86 200 91C189 95 183 105 177 119" stroke="url(#paint16_linear_0_144)" stroke-width="0.8"/>
<path id="Vector_18" opacity="0.55" d="M109 157C126 166 144 170 158 164C168 160 173 143 177 119" stroke="url(#paint17_linear_0_144)" stroke-width="0.8"/>
<path id="Vector_19" opacity="0.55" d="M245 157C228 166 210 170 196 164C186 160 181 143 177 119" stroke="url(#paint18_linear_0_144)" stroke-width="0.8"/>
<path id="Vector_20" opacity="0.48" d="M139 185C151 193 166 194 177 190C188 194 203 193 215 185" stroke="url(#paint19_linear_0_144)" stroke-width="0.8"/>
<path id="Vector_21" opacity="0.35" d="M110 91C142 70 212 69 245 92" stroke="url(#paint20_linear_0_144)" stroke-width="0.7"/>
<path id="Vector_22" opacity="0.32" d="M107 141C146 160 210 160 247 141" stroke="url(#paint21_linear_0_144)" stroke-width="0.7"/>
<path id="Vector_23" opacity="0.28" d="M136 56C121 83 120 155 143 184" stroke="url(#paint22_linear_0_144)" stroke-width="0.7"/>
<path id="Vector_24" opacity="0.28" d="M218 56C233 83 234 155 211 184" stroke="url(#paint23_linear_0_144)" stroke-width="0.7"/>
<g id="Group">
<path id="Vector_25" d="M111 69.6C112.436 69.6 113.6 68.4359 113.6 67C113.6 65.5641 112.436 64.4 111 64.4C109.564 64.4 108.4 65.5641 108.4 67C108.4 68.4359 109.564 69.6 111 69.6Z" fill="#00E5FF"/>
<path id="Vector_26" d="M104 105.2C105.215 105.2 106.2 104.215 106.2 103C106.2 101.785 105.215 100.8 104 100.8C102.785 100.8 101.8 101.785 101.8 103C101.8 104.215 102.785 105.2 104 105.2Z" fill="#00E5FF"/>
<path id="Vector_27" d="M109 159.2C110.215 159.2 111.2 158.215 111.2 157C111.2 155.785 110.215 154.8 109 154.8C107.785 154.8 106.8 155.785 106.8 157C106.8 158.215 107.785 159.2 109 159.2Z" fill="#00E5FF"/>
<path id="Vector_28" d="M139 187.1C140.16 187.1 141.1 186.16 141.1 185C141.1 183.84 140.16 182.9 139 182.9C137.84 182.9 136.9 183.84 136.9 185C136.9 186.16 137.84 187.1 139 187.1Z" fill="#00E5FF"/>
</g>
<g id="Group_2">
<path id="Vector_29" d="M243 69.6C244.436 69.6 245.6 68.4359 245.6 67C245.6 65.5641 244.436 64.4 243 64.4C241.564 64.4 240.4 65.5641 240.4 67C240.4 68.4359 241.564 69.6 243 69.6Z" fill="#D946FF"/>
<path id="Vector_30" d="M250 105.2C251.215 105.2 252.2 104.215 252.2 103C252.2 101.785 251.215 100.8 250 100.8C248.785 100.8 247.8 101.785 247.8 103C247.8 104.215 248.785 105.2 250 105.2Z" fill="#D946FF"/>
<path id="Vector_31" d="M245 159.2C246.215 159.2 247.2 158.215 247.2 157C247.2 155.785 246.215 154.8 245 154.8C243.785 154.8 242.8 155.785 242.8 157C242.8 158.215 243.785 159.2 245 159.2Z" fill="#D946FF"/>
<path id="Vector_32" d="M215 187.1C216.16 187.1 217.1 186.16 217.1 185C217.1 183.84 216.16 182.9 215 182.9C213.84 182.9 212.9 183.84 212.9 185C212.9 186.16 213.84 187.1 215 187.1Z" fill="#D946FF"/>
</g>
<g id="Group_3">
<path id="Vector_33" d="M160 62.6C160.884 62.6 161.6 61.8837 161.6 61C161.6 60.1163 160.884 59.4 160 59.4C159.116 59.4 158.4 60.1163 158.4 61C158.4 61.8837 159.116 62.6 160 62.6Z" fill="#8B5CF6"/>
<path id="Vector_34" d="M194 62.6C194.884 62.6 195.6 61.8837 195.6 61C195.6 60.1163 194.884 59.4 194 59.4C193.116 59.4 192.4 60.1163 192.4 61C192.4 61.8837 193.116 62.6 194 62.6Z" fill="#8B5CF6"/>
<path id="Vector_35" d="M154 92.5C154.828 92.5 155.5 91.8284 155.5 91C155.5 90.1716 154.828 89.5 154 89.5C153.172 89.5 152.5 90.1716 152.5 91C152.5 91.8284 153.172 92.5 154 92.5Z" fill="#8B5CF6"/>
<path id="Vector_36" d="M200 92.5C200.828 92.5 201.5 91.8284 201.5 91C201.5 90.1716 200.828 89.5 200 89.5C199.172 89.5 198.5 90.1716 198.5 91C198.5 91.8284 199.172 92.5 200 92.5Z" fill="#8B5CF6"/>
<path id="Vector_37" d="M158 165.5C158.828 165.5 159.5 164.828 159.5 164C159.5 163.172 158.828 162.5 158 162.5C157.172 162.5 156.5 163.172 156.5 164C156.5 164.828 157.172 165.5 158 165.5Z" fill="#8B5CF6"/>
<path id="Vector_38" d="M196 165.5C196.828 165.5 197.5 164.828 197.5 164C197.5 163.172 196.828 162.5 196 162.5C195.172 162.5 194.5 163.172 194.5 164C194.5 164.828 195.172 165.5 196 165.5Z" fill="#8B5CF6"/>
</g>
<g id="Group_4">
<path id="Vector_39" d="M92 81.8C92.9941 81.8 93.8 80.9941 93.8 80C93.8 79.0059 92.9941 78.2 92 78.2C91.0059 78.2 90.2 79.0059 90.2 80C90.2 80.9941 91.0059 81.8 92 81.8Z" fill="#00E5FF"/>
<path id="Vector_40" d="M92 124.6C92.8837 124.6 93.6 123.884 93.6 123C93.6 122.116 92.8837 121.4 92 121.4C91.1163 121.4 90.4 122.116 90.4 123C90.4 123.884 91.1163 124.6 92 124.6Z" fill="#00E5FF"/>
<path id="Vector_41" d="M98 168.7C98.9389 168.7 99.7 167.939 99.7 167C99.7 166.061 98.9389 165.3 98 165.3C97.0611 165.3 96.3 166.061 96.3 167C96.3 167.939 97.0611 168.7 98 168.7Z" fill="#00E5FF"/>
<path id="Vector_42" d="M8 133.4C8.7732 133.4 9.4 132.773 9.4 132C9.4 131.227 8.7732 130.6 8 130.6C7.2268 130.6 6.6 131.227 6.6 132C6.6 132.773 7.2268 133.4 8 133.4Z" fill="#00E5FF"/>
<path id="Vector_43" d="M7 191.4C7.7732 191.4 8.4 190.773 8.4 190C8.4 189.227 7.7732 188.6 7 188.6C6.2268 188.6 5.6 189.227 5.6 190C5.6 190.773 6.2268 191.4 7 191.4Z" fill="#00E5FF"/>
</g>
<g id="Group_5">
<path id="Vector_44" d="M262 81.8C262.994 81.8 263.8 80.9941 263.8 80C263.8 79.0059 262.994 78.2 262 78.2C261.006 78.2 260.2 79.0059 260.2 80C260.2 80.9941 261.006 81.8 262 81.8Z" fill="#D946FF"/>
<path id="Vector_45" d="M262 124.6C262.884 124.6 263.6 123.884 263.6 123C263.6 122.116 262.884 121.4 262 121.4C261.116 121.4 260.4 122.116 260.4 123C260.4 123.884 261.116 124.6 262 124.6Z" fill="#D946FF"/>
<path id="Vector_46" d="M256 168.7C256.939 168.7 257.7 167.939 257.7 167C257.7 166.061 256.939 165.3 256 165.3C255.061 165.3 254.3 166.061 254.3 167C254.3 167.939 255.061 168.7 256 168.7Z" fill="#D946FF"/>
<path id="Vector_47" d="M346 71.4C346.773 71.4 347.4 70.7732 347.4 70C347.4 69.2268 346.773 68.6 346 68.6C345.227 68.6 344.6 69.2268 344.6 70C344.6 70.7732 345.227 71.4 346 71.4Z" fill="#D946FF"/>
<path id="Vector_48" d="M347 133.4C347.773 133.4 348.4 132.773 348.4 132C348.4 131.227 347.773 130.6 347 130.6C346.227 130.6 345.6 131.227 345.6 132C345.6 132.773 346.227 133.4 347 133.4Z" fill="#D946FF"/>
<path id="Vector_49" d="M347 191.4C347.773 191.4 348.4 190.773 348.4 190C348.4 189.227 347.773 188.6 347 188.6C346.227 188.6 345.6 189.227 345.6 190C345.6 190.773 346.227 191.4 347 191.4Z" fill="#D946FF"/>
</g>
</g>
<defs>
<linearGradient id="paint0_linear_0_144" x1="-4.90596e-06" y1="9.29719e-06" x2="354" y2="246" gradientUnits="userSpaceOnUse">
<stop stop-color="#00E5FF" stop-opacity="0.7"/>
<stop offset="0.5" stop-color="#8B5CF6" stop-opacity="0.45"/>
<stop offset="1" stop-color="#D946FF" stop-opacity="0.7"/>
</linearGradient>
<linearGradient id="paint1_linear_0_144" x1="-9.23391e-07" y1="1.06564e-05" x2="354" y2="246" gradientUnits="userSpaceOnUse">
<stop stop-color="#00E5FF" stop-opacity="0.7"/>
<stop offset="0.5" stop-color="#8B5CF6" stop-opacity="0.45"/>
<stop offset="1" stop-color="#D946FF" stop-opacity="0.7"/>
</linearGradient>
<linearGradient id="paint2_linear_0_144" x1="2.77e-06" y1="-6.82538e-07" x2="354" y2="246" gradientUnits="userSpaceOnUse">
<stop stop-color="#00E5FF" stop-opacity="0.7"/>
<stop offset="0.5" stop-color="#8B5CF6" stop-opacity="0.45"/>
<stop offset="1" stop-color="#D946FF" stop-opacity="0.7"/>
</linearGradient>
<linearGradient id="paint3_linear_0_144" x1="1.42112e-06" y1="-1.14361e-06" x2="354" y2="246" gradientUnits="userSpaceOnUse">
<stop stop-color="#00E5FF" stop-opacity="0.7"/>
<stop offset="0.5" stop-color="#8B5CF6" stop-opacity="0.45"/>
<stop offset="1" stop-color="#D946FF" stop-opacity="0.7"/>
</linearGradient>
<linearGradient id="paint4_linear_0_144" x1="2.05251e-06" y1="1.62991e-05" x2="354" y2="246" gradientUnits="userSpaceOnUse">
<stop stop-color="#00E5FF" stop-opacity="0.7"/>
<stop offset="0.5" stop-color="#8B5CF6" stop-opacity="0.45"/>
<stop offset="1" stop-color="#D946FF" stop-opacity="0.7"/>
</linearGradient>
<linearGradient id="paint5_linear_0_144" x1="88" y1="42" x2="268" y2="204" gradientUnits="userSpaceOnUse">
<stop stop-color="#00E5FF"/>
<stop offset="0.52" stop-color="#8B5CF6"/>
<stop offset="1" stop-color="#D946FF"/>
</linearGradient>
<linearGradient id="paint6_linear_0_144" x1="88" y1="42" x2="268" y2="204" gradientUnits="userSpaceOnUse">
<stop stop-color="#00E5FF"/>
<stop offset="0.52" stop-color="#8B5CF6"/>
<stop offset="1" stop-color="#D946FF"/>
</linearGradient>
<linearGradient id="paint7_linear_0_144" x1="88" y1="42" x2="268" y2="204" gradientUnits="userSpaceOnUse">
<stop stop-color="#00E5FF"/>
<stop offset="0.52" stop-color="#8B5CF6"/>
<stop offset="1" stop-color="#D946FF"/>
</linearGradient>
<linearGradient id="paint8_linear_0_144" x1="88" y1="42" x2="268" y2="204" gradientUnits="userSpaceOnUse">
<stop stop-color="#00E5FF"/>
<stop offset="0.52" stop-color="#8B5CF6"/>
<stop offset="1" stop-color="#D946FF"/>
</linearGradient>
<linearGradient id="paint9_linear_0_144" x1="88" y1="42" x2="268" y2="204" gradientUnits="userSpaceOnUse">
<stop stop-color="#00E5FF"/>
<stop offset="0.52" stop-color="#8B5CF6"/>
<stop offset="1" stop-color="#D946FF"/>
</linearGradient>
<linearGradient id="paint10_linear_0_144" x1="88" y1="42" x2="268" y2="204" gradientUnits="userSpaceOnUse">
<stop stop-color="#00E5FF"/>
<stop offset="0.52" stop-color="#8B5CF6"/>
<stop offset="1" stop-color="#D946FF"/>
</linearGradient>
<linearGradient id="paint11_linear_0_144" x1="88" y1="42" x2="268" y2="204" gradientUnits="userSpaceOnUse">
<stop stop-color="#00E5FF"/>
<stop offset="0.52" stop-color="#8B5CF6"/>
<stop offset="1" stop-color="#D946FF"/>
</linearGradient>
<linearGradient id="paint12_linear_0_144" x1="88" y1="42" x2="268" y2="204" gradientUnits="userSpaceOnUse">
<stop stop-color="#00E5FF"/>
<stop offset="0.52" stop-color="#8B5CF6"/>
<stop offset="1" stop-color="#D946FF"/>
</linearGradient>
<linearGradient id="paint13_linear_0_144" x1="88" y1="42" x2="268" y2="204" gradientUnits="userSpaceOnUse">
<stop stop-color="#00E5FF"/>
<stop offset="0.52" stop-color="#8B5CF6"/>
<stop offset="1" stop-color="#D946FF"/>
</linearGradient>
<linearGradient id="paint14_linear_0_144" x1="88" y1="42" x2="268" y2="204" gradientUnits="userSpaceOnUse">
<stop stop-color="#00E5FF"/>
<stop offset="0.52" stop-color="#8B5CF6"/>
<stop offset="1" stop-color="#D946FF"/>
</linearGradient>
<linearGradient id="paint15_linear_0_144" x1="88" y1="42" x2="268" y2="204" gradientUnits="userSpaceOnUse">
<stop stop-color="#00E5FF"/>
<stop offset="0.52" stop-color="#8B5CF6"/>
<stop offset="1" stop-color="#D946FF"/>
</linearGradient>
<linearGradient id="paint16_linear_0_144" x1="88" y1="42" x2="268" y2="204" gradientUnits="userSpaceOnUse">
<stop stop-color="#00E5FF"/>
<stop offset="0.52" stop-color="#8B5CF6"/>
<stop offset="1" stop-color="#D946FF"/>
</linearGradient>
<linearGradient id="paint17_linear_0_144" x1="88" y1="42" x2="268" y2="204" gradientUnits="userSpaceOnUse">
<stop stop-color="#00E5FF"/>
<stop offset="0.52" stop-color="#8B5CF6"/>
<stop offset="1" stop-color="#D946FF"/>
</linearGradient>
<linearGradient id="paint18_linear_0_144" x1="88" y1="42" x2="268" y2="204" gradientUnits="userSpaceOnUse">
<stop stop-color="#00E5FF"/>
<stop offset="0.52" stop-color="#8B5CF6"/>
<stop offset="1" stop-color="#D946FF"/>
</linearGradient>
<linearGradient id="paint19_linear_0_144" x1="88" y1="42" x2="268" y2="204" gradientUnits="userSpaceOnUse">
<stop stop-color="#00E5FF"/>
<stop offset="0.52" stop-color="#8B5CF6"/>
<stop offset="1" stop-color="#D946FF"/>
</linearGradient>
<linearGradient id="paint20_linear_0_144" x1="-5.54404e-06" y1="-6.14481e-06" x2="354" y2="246" gradientUnits="userSpaceOnUse">
<stop stop-color="#00E5FF" stop-opacity="0.7"/>
<stop offset="0.5" stop-color="#8B5CF6" stop-opacity="0.45"/>
<stop offset="1" stop-color="#D946FF" stop-opacity="0.7"/>
</linearGradient>
<linearGradient id="paint21_linear_0_144" x1="-1.33569e-05" y1="1.06653e-06" x2="354" y2="246" gradientUnits="userSpaceOnUse">
<stop stop-color="#00E5FF" stop-opacity="0.7"/>
<stop offset="0.5" stop-color="#8B5CF6" stop-opacity="0.45"/>
<stop offset="1" stop-color="#D946FF" stop-opacity="0.7"/>
</linearGradient>
<linearGradient id="paint22_linear_0_144" x1="-5.98235e-06" y1="-2.73304e-06" x2="354" y2="246" gradientUnits="userSpaceOnUse">
<stop stop-color="#00E5FF" stop-opacity="0.7"/>
<stop offset="0.5" stop-color="#8B5CF6" stop-opacity="0.45"/>
<stop offset="1" stop-color="#D946FF" stop-opacity="0.7"/>
</linearGradient>
<linearGradient id="paint23_linear_0_144" x1="-1.24679e-05" y1="2.47006e-06" x2="354" y2="246" gradientUnits="userSpaceOnUse">
<stop stop-color="#00E5FF" stop-opacity="0.7"/>
<stop offset="0.5" stop-color="#8B5CF6" stop-opacity="0.45"/>
<stop offset="1" stop-color="#D946FF" stop-opacity="0.7"/>
</linearGradient>
</defs>
</svg>
